<svg xmlns="http://www.w3.org/2000/svg" viewBox="0 0 37.42 37.19"><defs><style>.cls-1,.cls-2{fill:#fef4f2;}.cls-1{fill-rule:evenodd;}</style></defs><title>loherb_logo_full</title><g id="Layer_2" data-name="Layer 2"><g id="Webpage"><path class="cls-1" d="M16.63,21a13.37,13.37,0,0,1,4.6-3.44c1.85-.92,4.18-1.39,6.13-2.25.59-1.06,1.14-2,1.73-3l.71.13a20.64,20.64,0,0,1-3.2,4.68,28,28,0,0,1-8.85,5.84L16.63,21Zm11.49-4.49A22.75,22.75,0,0,1,17.78,23l.81,1.41,4.07,1.78c3.78-2.18,5.69-3.57,5.58-8.46Z"/><path class="cls-1" d="M26.69,23.23c-3.39,3.7-6.1.32-8.32-2.37a14.6,14.6,0,0,0-4.76-4.28,18.57,18.57,0,0,0-5.72-2,11.25,11.25,0,0,0,3,10.35,10.38,10.38,0,0,0,10.82,1.93c-5.41-.36-9.18-4-11.77-8.81,2.37,3.44,7.35,8.86,13.16,8.19A9.85,9.85,0,0,0,26.69,23.23Z"/><path class="cls-2" d="M25.08,3.4c9.38-1.73,12.35,10,7.57,18.06-4,7.8-14,13.76-14,13.76A41,41,0,0,1,5.35,22.79C-.67,12.87,2.7,7.24,6.76,4.46a7.85,7.85,0,0,1,5.58-1s3,1.17,3.25-.33C15.92,1.41,13.8-.18,10.81,0A10.52,10.52,0,0,0,4.44,2.61C3.31,3.67-4,9.64,3,22.46c4.49,7.76,15.66,14.73,15.66,14.73S40.55,25,37,8.91C34.38-.58,25.84,0,24.69.28s-2.86,1-2.86,2.26C22.23,5.06,24.16,3.47,25.08,3.4Z"/><path class="cls-2" d="M11.27,11.81h-1a2.2,2.2,0,0,1-1.54-.43,1.49,1.49,0,0,1-.4-1.17V7.54H9v2.61a1.17,1.17,0,0,0,.22.81,1.42,1.42,0,0,0,1,.3h1Z"/><path class="cls-2" d="M15,9.67a3.37,3.37,0,0,1-.25,1.48,1.42,1.42,0,0,1-1.42.79,1.43,1.43,0,0,1-1.43-.79,3.37,3.37,0,0,1-.25-1.48,3.32,3.32,0,0,1,.25-1.47,1.43,1.43,0,0,1,1.43-.79,1.42,1.42,0,0,1,1.42.79A3.32,3.32,0,0,1,15,9.67Zm-.69,0a4.25,4.25,0,0,0-.1-1.06A.87.87,0,0,0,13.37,8a.88.88,0,0,0-.89.65,4.25,4.25,0,0,0-.1,1.06,4.44,4.44,0,0,0,.1,1.08.87.87,0,0,0,.89.63.86.86,0,0,0,.88-.63A4.44,4.44,0,0,0,14.35,9.67Z"/><path class="cls-2" d="M18.4,11.81h-.66V9.9H16.09v1.91h-.66V7.54h.66V9.35h1.65V7.54h.66Z"/><path class="cls-2" d="M22,11.81h-.86a2.47,2.47,0,0,1-1.64-.42A1.79,1.79,0,0,1,19,10V7.54h3v.54h-2.3V9.34h2.19v.54H19.65V10A1.34,1.34,0,0,0,20,11a1.74,1.74,0,0,0,1.13.27H22Z"/><path class="cls-2" d="M25.57,11.81h-.73l-.73-1.62a2.12,2.12,0,0,1-.37,0H23.2v1.6h-.67V7.54h1.21c1.18,0,1.77.44,1.77,1.34A1.18,1.18,0,0,1,24.79,10Zm-.73-2.93a.72.72,0,0,0-.2-.56,1.31,1.31,0,0,0-.9-.24H23.2V9.67h.54a1.31,1.31,0,0,0,.9-.24A.73.73,0,0,0,24.84,8.88Z"/><path class="cls-2" d="M29.05,10.54a1.08,1.08,0,0,1-.63,1,2.57,2.57,0,0,1-1.18.26H26.08V7.54h1.25a2.17,2.17,0,0,1,1.09.25,1,1,0,0,1,.47.85,1,1,0,0,1-.46.88A1,1,0,0,1,29.05,10.54Zm-.84-1.9c0-.37-.29-.56-.88-.56h-.59V9.33h.43C27.87,9.33,28.21,9.1,28.21,8.64Zm.18,1.9A.58.58,0,0,0,28.1,10a1.1,1.1,0,0,0-.59-.16h-.77v1.4h.5C28,11.26,28.39,11,28.39,10.54Z"/></g></g></svg>