<?xml version="1.0" standalone="no"?>
<!DOCTYPE svg PUBLIC "-//W3C//DTD SVG 20010904//EN"
 "http://www.w3.org/TR/2001/REC-SVG-20010904/DTD/svg10.dtd">
<svg version="1.0" xmlns="http://www.w3.org/2000/svg"
 width="400.000000pt" height="400.000000pt" viewBox="0 0 400.000000 400.000000"
 preserveAspectRatio="xMidYMid meet">
<metadata>
Created by potrace 1.11, written by Peter Selinger 2001-2013
</metadata>
<g transform="translate(0.000000,400.000000) scale(0.100000,-0.100000)"
fill="#000000" stroke="none">
<path d="M3852 3348 c-10 -18 -81 -142 -158 -275 l-139 -242 -130 -50 c-71
-27 -262 -92 -423 -145 -372 -122 -492 -172 -742 -308 -65 -36 -268 -168 -290
-189 -8 -8 -38 -32 -65 -54 -28 -22 -61 -50 -75 -62 -14 -13 -27 -23 -30 -23
-3 1 -22 22 -43 49 -105 133 -332 337 -492 442 -293 193 -736 377 -1085 452
-58 13 -112 23 -120 22 -11 0 -20 -25 -33 -85 -27 -124 -29 -531 -3 -656 2
-12 7 -37 10 -55 19 -112 38 -187 83 -319 133 -394 376 -714 707 -932 197
-130 449 -233 642 -264 21 -3 41 -7 45 -9 16 -10 173 -20 314 -20 191 0 286 9
425 41 36 9 73 17 83 19 10 2 57 16 105 30 86 26 121 43 85 42 -100 -5 -475
73 -588 123 -11 4 -56 23 -100 40 -116 47 -233 111 -377 206 -69 46 -132 89
-140 96 -7 7 -40 35 -73 63 -243 201 -503 514 -701 845 -58 96 -77 130 -71
130 2 0 17 -19 33 -42 16 -24 31 -45 34 -48 3 -3 21 -25 40 -50 162 -211 422
-488 618 -655 334 -286 699 -487 1022 -563 174 -41 223 -47 410 -47 151 0 156
1 209 28 185 97 429 294 532 427 10 14 48 63 84 108 148 191 221 378 253 652
9 86 9 376 -1 470 l-8 75 -157 -155 c-350 -348 -820 -663 -1274 -857 -91 -38
-98 -40 -112 -24 -15 16 -7 22 96 77 434 229 851 533 1158 843 189 190 314
364 510 711 23 41 51 90 61 108 11 18 19 34 19 36 0 3 -19 7 -42 11 -24 4 -53
9 -65 11 -16 3 -26 -4 -41 -28z"/>
</g>
</svg>
