<svg xmlns="http://www.w3.org/2000/svg" viewBox="0 0 29.36 29.36" fill="#917661">
    <defs>
        <clipPath id="aqua_building_cp">
            <path fill="none" d="M3.89 7.33h21.58v14.69H3.89z"/>
        </clipPath>
    </defs>
    <g data-name="Layer 2">
        <g data-name="Layer 1">
            <g clip-path="url(#aqua_building_cp)">
                <path data-name="Path 29" d="M8 11.47a4.15 4.15 0 003.33-1.7 4.12 4.12 0 005.76.9 4 4 0 00.9-.9 4.12 4.12 0 007.46-2.44h-1.59a2.53 2.53 0 11-5.05 0H17.2a2.52 2.52 0 11-5 0h-1.65a2.53 2.53 0 11-5.05 0H3.89A4.15 4.15 0 008 11.47"/>
                <path d="M21.34 15.14a2.53 2.53 0 01-2.53-2.53H17.2a2.52 2.52 0 11-5 0h-1.65a2.53 2.53 0 11-5.05 0H3.89a4.13 4.13 0 007.46 2.44 4.12 4.12 0 005.76.9 4 4 0 00.9-.9 4.13 4.13 0 007.46-2.44h-1.61a2.52 2.52 0 01-2.52 2.53"/>
                <path d="M21.34 20.42a2.53 2.53 0 01-2.53-2.53H17.2a2.52 2.52 0 11-5 0h-1.65a2.53 2.53 0 11-5.05 0H3.89a4.13 4.13 0 007.46 2.44 4.12 4.12 0 005.76.9 4 4 0 00.9-.9 4.13 4.13 0 007.46-2.44h-1.61a2.52 2.52 0 01-2.52 2.53"/>
            </g>
        </g>
    </g>
</svg>
