<svg xmlns="http://www.w3.org/2000/svg" width="18.529" height="24" fill="#084137">
    <defs>
        <clipPath id="bed_icon_cp">
            <path fill="none" d="M0 0h18.529v24H0z"/>
        </clipPath>
    </defs>
    <g clip-path="url(#bed_icon_cp)">
        <path d="M16.86 24.001H1.67a.775.775 0 01-.775-.775V8.036a.775.775 0 01.775-.775h15.19a.775.775 0 01.775.775v15.19a.775.775 0 01-.775.775"/>
        <path d="M1.76.895h15.01a.865.865 0 01.865.865v4.635a.866.866 0 01-.866.866H1.761a.866.866 0 01-.866-.866V1.76A.865.865 0 011.76.895z" stroke="#084137" stroke-miterlimit="10" stroke-width="2" fill="none"/>
        <path d="M7.295 4.048A1.616 1.616 0 115.68 2.432a1.615 1.615 0 011.615 1.616M14.464 4.048a1.616 1.616 0 11-1.616-1.616 1.615 1.615 0 011.616 1.616"/>
    </g>
</svg>
