<svg xmlns="http://www.w3.org/2000/svg" viewBox="0 0 23.72 23.85"  fill="#084137">
            <path d="M21.54 7.83l-.54-.5L12.89.38a1.58 1.58 0 00-2.06 0l-8.07 7-.58.5L.1 9.62a.28.28 0 000 .4l.77.9a.3.3 0 00.41 0l.93-.81v12.52a1.22 1.22 0 001.19 1.22h16.93a1.22 1.22 0 001.21-1.22V10.14l.93.81a.3.3 0 00.41 0l.77-.9a.28.28 0 000-.4zM19.22 22.1H4.5a.58.58 0 01-.57-.57v-2a.58.58 0 01.57-.57h14.72a.57.57 0 01.57.57v2a.57.57 0 01-.57.57zm0-4.93H4.5a.57.57 0 01-.57-.57v-2a.57.57 0 01.57-.6h14.72a.56.56 0 01.57.57v2a.56.56 0 01-.57.6zm-15.29-5.5v-2a.57.57 0 01.57-.57h14.72a.56.56 0 01.57.57v2a.57.57 0 01-.57.58H4.5a.58.58 0 01-.57-.58zm1.81-4.59l5.49-4.73a1 1 0 011.26 0L18 7.08a.14.14 0 01-.09.25H5.83a.14.14 0 01-.09-.25z"/>

</svg>
