<svg xmlns="http://www.w3.org/2000/svg" width="24" height="24"  fill="#084137">
    <defs>
        <clipPath id="room_size_icon_cp">
            <path d="M18.714 8.857h-.857a.429.429 0 00-.429.429v6a.429.429 0 00.429.429h.857a.429.429 0 00.429-.429v-4.715h2.143a.429.429 0 00.429-.429v-.856a.429.429 0 00-.429-.429zM3.714 2A1.714 1.714 0 002 3.714v20.572A1.714 1.714 0 003.714 26h20.572A1.714 1.714 0 0026 24.286v-5.143h-2.143V23a.857.857 0 01-.857.857h-3.857v-5.143a.428.428 0 00-.429-.429h-.857a.428.428 0 00-.429.429v5.143h-6.857v-3.428a.428.428 0 00-.428-.429h-.857a.429.429 0 00-.429.429v3.429H5A.856.856 0 014.143 23v-9h4.714v3a.429.429 0 00.429.429h.857a.428.428 0 00.428-.429v-4.286a.428.428 0 00-.429-.429h-6V8.857h4.287a.429.429 0 00.429-.429v-.857a.429.429 0 00-.429-.429H4.143V5A.857.857 0 015 4.143h18a.857.857 0 01.857.857v11.571H26V3.714A1.715 1.715 0 0024.286 2z" transform="translate(-2 -2)"/>
        </clipPath>
    </defs>
    <g clip-path="url(#room_size_icon_cp)">
        <path d="M-4.286-4.286h32.571v32.571H-4.286z"/>
    </g>
</svg>
