<svg xmlns="http://www.w3.org/2000/svg" viewBox="0 0 29.36 29.36" fill="#917661">
    <defs>
        <clipPath id="tree_building_cp">
            <path fill="none" d="M4.57 2.29h20.22v24.79H4.57z"/>
        </clipPath>
    </defs>
    <g>
        <g>
            <g>
                <g clip-path="url(#tree_building_cp)">
                    <path d="M23.36 9.51a5.66 5.66 0 00-.42-.43 5.55 5.55 0 00-8.22-6 5.49 5.49 0 00-2.82-.78 5.68 5.68 0 00-.59 0 5.56 5.56 0 00-4.95 6.13 3.83 3.83 0 00.1.59A5.56 5.56 0 006 16.87a5.49 5.49 0 003 1.76 5.58 5.58 0 00.59.09 5.57 5.57 0 002.25 2.57 10.92 10.92 0 01-1.37 4.59l-.76 1.19h10l-.76-1.18a11 11 0 01-1.37-4.6 5.53 5.53 0 002-2 5.2 5.2 0 00.26-.53 5.57 5.57 0 003.62-9.26m-2.27-3.27a4 4 0 01.33 1.93A5.53 5.53 0 0017.44 8a5.3 5.3 0 000-.69A5.53 5.53 0 0016 4.14a4 4 0 015.16 2.09m-.08 3.43a4 4 0 01-2 1.87 3.79 3.79 0 01-1.41.34l-.28-.17a5.26 5.26 0 00-1.14-.5 5.31 5.31 0 00.65-1.1 2.52 2.52 0 00.12-.29 4 4 0 014-.16M14.71 5a4 4 0 011.06 3.88c0 .11-.06.23-.1.34a4 4 0 01-1 1.51 4 4 0 01-.84-1.21c-.07-.16-.12-.29-.16-.41a4 4 0 011-4.11m-6 .33a3.9 3.9 0 011.21-1 4 4 0 013.43-.2A5.52 5.52 0 0012 8a5.27 5.27 0 00-.68-.19 5.55 5.55 0 00-3.41.36 4 4 0 01.89-2.8m4.62 6.26a4 4 0 01-5.13-2A4 4 0 0111 9.26a4.13 4.13 0 011.35.57l.13.31a5.42 5.42 0 00.94 1.44m-3.56 2.16a5.53 5.53 0 00-.72 3.35 4 4 0 01-2.08-6.49 5.56 5.56 0 003.19 2.56 5.87 5.87 0 00-.39.58m.85 3.43a4 4 0 01.49-2.66 3.86 3.86 0 01.94-1.11h.33a5.37 5.37 0 001.67-.45 3.6 3.6 0 01-.08 1.05 3.34 3.34 0 01-.11.43 4 4 0 01-3.24 2.72M17 25.53h-4.64a13.82 13.82 0 001-3.62 5.55 5.55 0 001.35.17A5.39 5.39 0 0016 21.9a13.3 13.3 0 001 3.63M12.66 20a4 4 0 01-1.4-1.36 5.49 5.49 0 003.41-2.24c.14.19.28.38.43.55a5.67 5.67 0 003 1.71A4 4 0 0112.66 20m6-2.82a4 4 0 01-2.38-1.28 3.77 3.77 0 01-.76-1.24 2.21 2.21 0 00.07-.3 5.53 5.53 0 00.09-1.72 3.76 3.76 0 011 .41 2.92 2.92 0 01.37.24 4 4 0 011.59 3.9m4.61-3.76V14.02a1.33 1.33 0 01-.05.19 4 4 0 01-2.92 2.92 5.59 5.59 0 00-1.08-3.93 5.5 5.5 0 003.2-2.53 4 4 0 01.87 1.85.68.68 0 000 .14v.74"/>
                </g>
            </g>
        </g>
    </g>
</svg>
